<svg xmlns="http://www.w3.org/2000/svg" width="554.2" height="158.171" viewBox="0 0 554.2 158.171">
  <g id="ambit_text_logo" transform="translate(-1366.8 -607.321)">
    <g id="Group_147" data-name="Group 147" transform="translate(1366.8 612.619)">
      <path id="Path_1136" data-name="Path 1136" d="M1479.277,762.837a10.211,10.211,0,0,1-9.69-7.023l-41.611-125.26-41.28,125.26a10.2,10.2,0,1,1-19.381-6.378L1410.9,617.154a10.208,10.208,0,0,1,9.688-7.023h15.1a10.21,10.21,0,0,1,9.69,7.023l43.587,132.283a10.224,10.224,0,0,1-9.688,13.4Z" transform="translate(-1366.8 -610.131)" fill="#a6a7a9"/>
    </g>
    <g id="Group_148" data-name="Group 148" transform="translate(1413.726 702.523)">
      <path id="Path_1137" data-name="Path 1137" d="M1420.515,672.33A14.473,14.473,0,0,1,1406,686.835a13.677,13.677,0,0,1-10.173-4.24,14.8,14.8,0,0,1,0-20.536,13.7,13.7,0,0,1,10.173-4.24,14.473,14.473,0,0,1,14.511,14.511Z" transform="translate(-1391.691 -657.819)" fill="#e24868"/>
    </g>
    <path id="Path_1138" data-name="Path 1138" d="M1545.8,628.47h-12.656a33.057,33.057,0,0,0-23.032,9.375,33.06,33.06,0,0,0-23.032-9.375h-12.65a33.279,33.279,0,0,0-33.232,33.239v74.85a10.2,10.2,0,1,0,20.408,0v-74.85a12.836,12.836,0,0,1,12.823-12.816h12.65a12.837,12.837,0,0,1,12.826,12.816v74.85a10.2,10.2,0,1,0,20.406,0V661.749c0-.013.007-.026.007-.04a12.837,12.837,0,0,1,12.826-12.816H1545.8a12.837,12.837,0,0,1,12.826,12.816v74.85a10.2,10.2,0,1,0,20.406,0v-74.85A33.279,33.279,0,0,0,1545.8,628.47Z" transform="translate(65.859 18.722)" fill="#a6a7a9"/>
    <path id="Path_1139" data-name="Path 1139" d="M1585.6,645.764h-37.041V619.456a10.2,10.2,0,1,0-20.406,0V753.3a10.2,10.2,0,1,0,20.406,0V666.187H1585.6a12.839,12.839,0,0,1,12.826,12.818v51.377A12.837,12.837,0,0,1,1585.6,743.2h-18.183a10.211,10.211,0,0,0,0,20.423H1585.6a33.279,33.279,0,0,0,33.232-33.239V679.005A33.279,33.279,0,0,0,1585.6,645.764Z" transform="translate(142.835 1.703)" fill="#a6a7a9"/>
    <g id="Group_149" data-name="Group 149" transform="translate(1787.409 647.575)">
      <path id="Path_1140" data-name="Path 1140" d="M1600.107,746.515a10.206,10.206,0,0,1-10.2-10.212V638.886a10.2,10.2,0,1,1,20.406,0V736.3A10.206,10.206,0,0,1,1600.107,746.515Z" transform="translate(-1589.904 -628.673)" fill="#a6a7a9"/>
    </g>
    <g id="Group_151" data-name="Group 151" transform="translate(1783.28 607.321)">
      <g id="Group_150" data-name="Group 150">
        <path id="Path_1141" data-name="Path 1141" d="M1616.538,621.834a14.473,14.473,0,0,1-14.511,14.5,13.676,13.676,0,0,1-10.173-4.238,14.805,14.805,0,0,1,0-20.538,13.706,13.706,0,0,1,10.173-4.24,14.476,14.476,0,0,1,14.511,14.513Z" transform="translate(-1587.714 -607.321)" fill="#f2b43e"/>
      </g>
    </g>
    <path id="Path_1142" data-name="Path 1142" d="M1657.129,739.4h-5.643a7.841,7.841,0,0,1-7.835-7.818v-69.24h13.1a10.211,10.211,0,0,0,0-20.421h-13.1V623.734a10.2,10.2,0,1,0-20.406,0v18.183h-4.492a10.211,10.211,0,0,0,0,20.421h4.492v69.24a28.283,28.283,0,0,0,28.241,28.241h5.643a10.211,10.211,0,0,0,0-20.423Z" transform="translate(214.011 5.49)" fill="#a6a7a9"/>
    <g id="Group_152" data-name="Group 152" transform="translate(1892.176 736.292)">
      <path id="Path_1143" data-name="Path 1143" d="M1674.3,690.244a14.473,14.473,0,0,1-14.511,14.5,13.677,13.677,0,0,1-10.173-4.238,14.806,14.806,0,0,1,0-20.538,13.707,13.707,0,0,1,10.173-4.24,14.476,14.476,0,0,1,14.511,14.513Z" transform="translate(-1645.476 -675.731)" fill="#bfd630"/>
    </g>
  </g>
</svg>
