<svg xmlns="http://www.w3.org/2000/svg" width="623.668" height="178"><g data-name="Ambit logo Nav"><g data-name="Group 11"><path data-name="Path 4" d="M127.06 177.809a11.536 11.536 0 01-10.948-7.9l-47-140.94-46.634 140.94a11.52 11.52 0 01-21.892-7.176L49.821 13.886a11.533 11.533 0 0110.948-7.9h17.052a11.529 11.529 0 0110.948 7.9l49.238 148.843a11.534 11.534 0 01-10.944 15.08z" fill="#a6a7a9"/></g><g data-name="Group 12"><path data-name="Path 5" d="M85.578 123.435a16.358 16.358 0 01-16.4 16.386 15.447 15.447 0 01-11.492-4.791 16.723 16.723 0 010-23.2 15.473 15.473 0 0111.492-4.786 16.352 16.352 0 0116.4 16.391z" fill="#e24868"/></g><path data-name="Path 6" d="M275.801 44.362h-14.3a37.354 37.354 0 00-26.02 10.591 37.351 37.351 0 00-26.016-10.591h-14.29a37.592 37.592 0 00-37.539 37.545v84.555a11.526 11.526 0 1023.051 0V81.907a14.5 14.5 0 0114.489-14.477h14.29a14.5 14.5 0 0114.489 14.477v84.555a11.525 11.525 0 1023.051 0V81.953l.008-.044a14.5 14.5 0 0114.489-14.477h14.3a14.5 14.5 0 0114.482 14.475v84.555a11.527 11.527 0 1023.055 0V81.907a37.6 37.6 0 00-37.539-37.545z" fill="#a6a7a9"/><path data-name="Path 7" d="M406.951 45.191h-41.843V15.587a11.526 11.526 0 00-23.051 0v150.61a11.526 11.526 0 0023.051 0V68.172h41.843a14.473 14.473 0 0114.489 14.424v57.808a14.473 14.473 0 01-14.489 14.424h-20.538a11.491 11.491 0 100 22.981h20.538a37.522 37.522 0 0037.54-37.405V82.597a37.522 37.522 0 00-37.54-37.406z" fill="#a6a7a9"/><g data-name="Group 13"><path data-name="Path 8" d="M484.785 177.913a11.528 11.528 0 01-11.527-11.535V56.331a11.528 11.528 0 1123.055 0v110.047a11.531 11.531 0 01-11.528 11.535z" fill="#a6a7a9"/></g><g data-name="Group 15"><g data-name="Group 14"><path data-name="Path 9" d="M501.147 16.392a16.352 16.352 0 01-16.394 16.386 15.453 15.453 0 01-11.492-4.786 15.984 15.984 0 01-4.677-11.6 16.015 16.015 0 014.676-11.6A15.483 15.483 0 01484.752.001a16.352 16.352 0 0116.395 16.391z" fill="#f2b43e"/></g></g><path data-name="Path 10" d="M567.345 154.818h-6.375a8.841 8.841 0 01-8.852-8.8V68.129h14.8a11.488 11.488 0 100-22.976h-14.8V24.695a11.526 11.526 0 00-23.051 0v20.458h-5.073a11.488 11.488 0 100 22.976h5.073v77.89a31.882 31.882 0 0031.9 31.772h6.375a11.486 11.486 0 100-22.972z" fill="#a6a7a9"/><g data-name="Group 16"><path data-name="Path 11" d="M623.669 161.407a16.352 16.352 0 01-16.394 16.382 15.45 15.45 0 01-11.492-4.787 16.729 16.729 0 010-23.2 15.479 15.479 0 0111.492-4.787 16.352 16.352 0 0116.394 16.394z" fill="#bfd630"/></g></g></svg>